<svg width="93" height="92" viewBox="0 0 93 92" fill="none" xmlns="http://www.w3.org/2000/svg">
<path d="M92.1029 45.953C92.1029 71.0381 71.7446 91.3747 46.6301 91.3747C21.5156 91.3747 1.15733 71.0381 1.15733 45.953C1.15733 20.8679 21.5156 0.53135 46.6301 0.53135C71.7446 0.53135 92.1029 20.8679 92.1029 45.953Z" stroke="white" stroke-width="1.0627"/>
<path d="M65.6674 38.3437C65.6674 48.8434 57.1458 57.3582 46.63 57.3582C36.1142 57.3582 27.5926 48.8434 27.5926 38.3437C27.5926 27.8441 36.1142 19.3293 46.63 19.3293C57.1458 19.3293 65.6674 27.8441 65.6674 38.3437Z" stroke="white" stroke-width="3.29387"/>
<mask id="mask0_278_1256" style="mask-type:alpha" maskUnits="userSpaceOnUse" x="6" y="11" width="81" height="82">
<path d="M86.4396 51.7507C86.4396 73.7115 68.6169 91.5151 46.6304 91.5151C24.6439 91.5151 6.82123 73.7115 6.82123 51.7507C6.82123 29.7899 24.6439 11.9863 46.6304 11.9863C68.6169 11.9863 86.4396 29.7899 86.4396 51.7507Z" fill="#C0C0C0" stroke="#122569" stroke-width="0.970101"/>
</mask>
<g mask="url(#mask0_278_1256)">
<path d="M76.249 88.8905C76.249 105.227 62.99 118.474 46.6304 118.474C30.2708 118.474 17.0119 105.227 17.0119 88.8905C17.0119 72.5535 30.2708 59.3066 46.6304 59.3066C62.99 59.3066 76.249 72.5535 76.249 88.8905Z" stroke="white" stroke-width="3.29387"/>
</g>
<path d="M91.0813 46C91.0813 70.4938 71.2026 90.3531 46.6771 90.3531C22.1516 90.3531 2.27291 70.4938 2.27291 46C2.27291 21.5062 22.1516 1.64694 46.6771 1.64694C71.2026 1.64694 91.0813 21.5062 91.0813 46Z" stroke="white" stroke-width="3.29387"/>
</svg>
